<mxfile host="Electron" agent="Mozilla/5.0 (Windows NT 10.0; Win64; x64) AppleWebKit/537.36 (KHTML, like Gecko) draw.io/27.0.2 Chrome/134.0.6998.205 Electron/35.3.0 Safari/537.36" version="27.0.2">
  <diagram name="Страница — 1" id="htR8LOCvYyjTQFzxAXuf">
    <mxGraphModel dx="1426" dy="849" grid="0" gridSize="10" guides="1" tooltips="1" connect="1" arrows="1" fold="1" page="1" pageScale="1" pageWidth="827" pageHeight="1169" math="0" shadow="0">
      <root>
        <mxCell id="0" />
        <mxCell id="1" parent="0" />
        <mxCell id="MPtfcEujKL0awTU9ri0k-1" value="Client&amp;nbsp;&lt;div&gt;(Клиент)&lt;/div&gt;" style="shape=table;startSize=30;container=1;collapsible=1;childLayout=tableLayout;fixedRows=1;rowLines=0;fontStyle=1;align=center;resizeLast=1;html=1;" vertex="1" parent="1">
          <mxGeometry x="349" y="554" width="171.75" height="122" as="geometry" />
        </mxCell>
        <mxCell id="MPtfcEujKL0awTU9ri0k-2" value="" style="shape=tableRow;horizontal=0;startSize=0;swimlaneHead=0;swimlaneBody=0;fillColor=none;collapsible=0;dropTarget=0;points=[[0,0.5],[1,0.5]];portConstraint=eastwest;top=0;left=0;right=0;bottom=1;" vertex="1" parent="MPtfcEujKL0awTU9ri0k-1">
          <mxGeometry y="30" width="171.75" height="30" as="geometry" />
        </mxCell>
        <mxCell id="MPtfcEujKL0awTU9ri0k-3" value="PK" style="shape=partialRectangle;connectable=0;fillColor=none;top=0;left=0;bottom=0;right=0;fontStyle=1;overflow=hidden;whiteSpace=wrap;html=1;" vertex="1" parent="MPtfcEujKL0awTU9ri0k-2">
          <mxGeometry width="30" height="30" as="geometry">
            <mxRectangle width="30" height="30" as="alternateBounds" />
          </mxGeometry>
        </mxCell>
        <mxCell id="MPtfcEujKL0awTU9ri0k-4" value="client_id: int" style="shape=partialRectangle;connectable=0;fillColor=none;top=0;left=0;bottom=0;right=0;align=left;spacingLeft=6;fontStyle=5;overflow=hidden;whiteSpace=wrap;html=1;" vertex="1" parent="MPtfcEujKL0awTU9ri0k-2">
          <mxGeometry x="30" width="141.75" height="30" as="geometry">
            <mxRectangle width="141.75" height="30" as="alternateBounds" />
          </mxGeometry>
        </mxCell>
        <mxCell id="MPtfcEujKL0awTU9ri0k-5" value="" style="shape=tableRow;horizontal=0;startSize=0;swimlaneHead=0;swimlaneBody=0;fillColor=none;collapsible=0;dropTarget=0;points=[[0,0.5],[1,0.5]];portConstraint=eastwest;top=0;left=0;right=0;bottom=0;" vertex="1" parent="MPtfcEujKL0awTU9ri0k-1">
          <mxGeometry y="60" width="171.75" height="30" as="geometry" />
        </mxCell>
        <mxCell id="MPtfcEujKL0awTU9ri0k-6" value="" style="shape=partialRectangle;connectable=0;fillColor=none;top=0;left=0;bottom=0;right=0;editable=1;overflow=hidden;whiteSpace=wrap;html=1;" vertex="1" parent="MPtfcEujKL0awTU9ri0k-5">
          <mxGeometry width="30" height="30" as="geometry">
            <mxRectangle width="30" height="30" as="alternateBounds" />
          </mxGeometry>
        </mxCell>
        <mxCell id="MPtfcEujKL0awTU9ri0k-7" value="FIO:char" style="shape=partialRectangle;connectable=0;fillColor=none;top=0;left=0;bottom=0;right=0;align=left;spacingLeft=6;overflow=hidden;whiteSpace=wrap;html=1;" vertex="1" parent="MPtfcEujKL0awTU9ri0k-5">
          <mxGeometry x="30" width="141.75" height="30" as="geometry">
            <mxRectangle width="141.75" height="30" as="alternateBounds" />
          </mxGeometry>
        </mxCell>
        <mxCell id="MPtfcEujKL0awTU9ri0k-8" value="" style="shape=tableRow;horizontal=0;startSize=0;swimlaneHead=0;swimlaneBody=0;fillColor=none;collapsible=0;dropTarget=0;points=[[0,0.5],[1,0.5]];portConstraint=eastwest;top=0;left=0;right=0;bottom=0;" vertex="1" parent="MPtfcEujKL0awTU9ri0k-1">
          <mxGeometry y="90" width="171.75" height="32" as="geometry" />
        </mxCell>
        <mxCell id="MPtfcEujKL0awTU9ri0k-9" value="" style="shape=partialRectangle;connectable=0;fillColor=none;top=0;left=0;bottom=0;right=0;editable=1;overflow=hidden;whiteSpace=wrap;html=1;" vertex="1" parent="MPtfcEujKL0awTU9ri0k-8">
          <mxGeometry width="30" height="32" as="geometry">
            <mxRectangle width="30" height="32" as="alternateBounds" />
          </mxGeometry>
        </mxCell>
        <mxCell id="MPtfcEujKL0awTU9ri0k-10" value="Phone_number:char" style="shape=partialRectangle;connectable=0;fillColor=none;top=0;left=0;bottom=0;right=0;align=left;spacingLeft=6;overflow=hidden;whiteSpace=wrap;html=1;" vertex="1" parent="MPtfcEujKL0awTU9ri0k-8">
          <mxGeometry x="30" width="141.75" height="32" as="geometry">
            <mxRectangle width="141.75" height="32" as="alternateBounds" />
          </mxGeometry>
        </mxCell>
        <mxCell id="MPtfcEujKL0awTU9ri0k-14" value="Medicine&amp;nbsp;&lt;div&gt;(Лекарство)&lt;/div&gt;" style="shape=table;startSize=30;container=1;collapsible=1;childLayout=tableLayout;fixedRows=1;rowLines=0;fontStyle=1;align=center;resizeLast=1;html=1;" vertex="1" parent="1">
          <mxGeometry x="344" y="107" width="167.75" height="210" as="geometry" />
        </mxCell>
        <mxCell id="MPtfcEujKL0awTU9ri0k-15" value="" style="shape=tableRow;horizontal=0;startSize=0;swimlaneHead=0;swimlaneBody=0;fillColor=none;collapsible=0;dropTarget=0;points=[[0,0.5],[1,0.5]];portConstraint=eastwest;top=0;left=0;right=0;bottom=1;" vertex="1" parent="MPtfcEujKL0awTU9ri0k-14">
          <mxGeometry y="30" width="167.75" height="30" as="geometry" />
        </mxCell>
        <mxCell id="MPtfcEujKL0awTU9ri0k-16" value="PK" style="shape=partialRectangle;connectable=0;fillColor=none;top=0;left=0;bottom=0;right=0;fontStyle=1;overflow=hidden;whiteSpace=wrap;html=1;" vertex="1" parent="MPtfcEujKL0awTU9ri0k-15">
          <mxGeometry width="30" height="30" as="geometry">
            <mxRectangle width="30" height="30" as="alternateBounds" />
          </mxGeometry>
        </mxCell>
        <mxCell id="MPtfcEujKL0awTU9ri0k-17" value="medicine_ID:int" style="shape=partialRectangle;connectable=0;fillColor=none;top=0;left=0;bottom=0;right=0;align=left;spacingLeft=6;fontStyle=5;overflow=hidden;whiteSpace=wrap;html=1;" vertex="1" parent="MPtfcEujKL0awTU9ri0k-15">
          <mxGeometry x="30" width="137.75" height="30" as="geometry">
            <mxRectangle width="137.75" height="30" as="alternateBounds" />
          </mxGeometry>
        </mxCell>
        <mxCell id="MPtfcEujKL0awTU9ri0k-18" value="" style="shape=tableRow;horizontal=0;startSize=0;swimlaneHead=0;swimlaneBody=0;fillColor=none;collapsible=0;dropTarget=0;points=[[0,0.5],[1,0.5]];portConstraint=eastwest;top=0;left=0;right=0;bottom=0;" vertex="1" parent="MPtfcEujKL0awTU9ri0k-14">
          <mxGeometry y="60" width="167.75" height="30" as="geometry" />
        </mxCell>
        <mxCell id="MPtfcEujKL0awTU9ri0k-19" value="" style="shape=partialRectangle;connectable=0;fillColor=none;top=0;left=0;bottom=0;right=0;editable=1;overflow=hidden;whiteSpace=wrap;html=1;" vertex="1" parent="MPtfcEujKL0awTU9ri0k-18">
          <mxGeometry width="30" height="30" as="geometry">
            <mxRectangle width="30" height="30" as="alternateBounds" />
          </mxGeometry>
        </mxCell>
        <mxCell id="MPtfcEujKL0awTU9ri0k-20" value="&lt;span style=&quot;white-space-collapse: preserve; background-color: rgb(255, 255, 255);&quot;&gt;manufacturer&lt;/span&gt;&lt;span style=&quot;font-weight: 700;&quot;&gt;_ID:int&lt;/span&gt;" style="shape=partialRectangle;connectable=0;fillColor=none;top=0;left=0;bottom=0;right=0;align=left;spacingLeft=6;overflow=hidden;whiteSpace=wrap;html=1;" vertex="1" parent="MPtfcEujKL0awTU9ri0k-18">
          <mxGeometry x="30" width="137.75" height="30" as="geometry">
            <mxRectangle width="137.75" height="30" as="alternateBounds" />
          </mxGeometry>
        </mxCell>
        <mxCell id="MPtfcEujKL0awTU9ri0k-202" value="" style="shape=tableRow;horizontal=0;startSize=0;swimlaneHead=0;swimlaneBody=0;fillColor=none;collapsible=0;dropTarget=0;points=[[0,0.5],[1,0.5]];portConstraint=eastwest;top=0;left=0;right=0;bottom=0;" vertex="1" parent="MPtfcEujKL0awTU9ri0k-14">
          <mxGeometry y="90" width="167.75" height="30" as="geometry" />
        </mxCell>
        <mxCell id="MPtfcEujKL0awTU9ri0k-203" value="" style="shape=partialRectangle;connectable=0;fillColor=none;top=0;left=0;bottom=0;right=0;editable=1;overflow=hidden;whiteSpace=wrap;html=1;" vertex="1" parent="MPtfcEujKL0awTU9ri0k-202">
          <mxGeometry width="30" height="30" as="geometry">
            <mxRectangle width="30" height="30" as="alternateBounds" />
          </mxGeometry>
        </mxCell>
        <mxCell id="MPtfcEujKL0awTU9ri0k-204" value="&lt;span style=&quot;white-space-collapse: preserve; font-family: &amp;quot;YS Text&amp;quot;, -apple-system, BlinkMacSystemFont, Arial, Helvetica, &amp;quot;Arial Unicode MS&amp;quot;, sans-serif; background-color: rgb(255, 255, 255);&quot;&gt;supplier&lt;/span&gt;&lt;span style=&quot;font-weight: 700;&quot;&gt;_ID:int&lt;/span&gt;" style="shape=partialRectangle;connectable=0;fillColor=none;top=0;left=0;bottom=0;right=0;align=left;spacingLeft=6;overflow=hidden;whiteSpace=wrap;html=1;" vertex="1" parent="MPtfcEujKL0awTU9ri0k-202">
          <mxGeometry x="30" width="137.75" height="30" as="geometry">
            <mxRectangle width="137.75" height="30" as="alternateBounds" />
          </mxGeometry>
        </mxCell>
        <mxCell id="MPtfcEujKL0awTU9ri0k-199" value="" style="shape=tableRow;horizontal=0;startSize=0;swimlaneHead=0;swimlaneBody=0;fillColor=none;collapsible=0;dropTarget=0;points=[[0,0.5],[1,0.5]];portConstraint=eastwest;top=0;left=0;right=0;bottom=0;" vertex="1" parent="MPtfcEujKL0awTU9ri0k-14">
          <mxGeometry y="120" width="167.75" height="30" as="geometry" />
        </mxCell>
        <mxCell id="MPtfcEujKL0awTU9ri0k-200" value="" style="shape=partialRectangle;connectable=0;fillColor=none;top=0;left=0;bottom=0;right=0;editable=1;overflow=hidden;whiteSpace=wrap;html=1;" vertex="1" parent="MPtfcEujKL0awTU9ri0k-199">
          <mxGeometry width="30" height="30" as="geometry">
            <mxRectangle width="30" height="30" as="alternateBounds" />
          </mxGeometry>
        </mxCell>
        <mxCell id="MPtfcEujKL0awTU9ri0k-201" value="Medicine_Name:char" style="shape=partialRectangle;connectable=0;fillColor=none;top=0;left=0;bottom=0;right=0;align=left;spacingLeft=6;overflow=hidden;whiteSpace=wrap;html=1;" vertex="1" parent="MPtfcEujKL0awTU9ri0k-199">
          <mxGeometry x="30" width="137.75" height="30" as="geometry">
            <mxRectangle width="137.75" height="30" as="alternateBounds" />
          </mxGeometry>
        </mxCell>
        <mxCell id="MPtfcEujKL0awTU9ri0k-149" value="" style="shape=tableRow;horizontal=0;startSize=0;swimlaneHead=0;swimlaneBody=0;fillColor=none;collapsible=0;dropTarget=0;points=[[0,0.5],[1,0.5]];portConstraint=eastwest;top=0;left=0;right=0;bottom=0;" vertex="1" parent="MPtfcEujKL0awTU9ri0k-14">
          <mxGeometry y="150" width="167.75" height="30" as="geometry" />
        </mxCell>
        <mxCell id="MPtfcEujKL0awTU9ri0k-150" value="" style="shape=partialRectangle;connectable=0;fillColor=none;top=0;left=0;bottom=0;right=0;editable=1;overflow=hidden;whiteSpace=wrap;html=1;" vertex="1" parent="MPtfcEujKL0awTU9ri0k-149">
          <mxGeometry width="30" height="30" as="geometry">
            <mxRectangle width="30" height="30" as="alternateBounds" />
          </mxGeometry>
        </mxCell>
        <mxCell id="MPtfcEujKL0awTU9ri0k-151" value="Price:int" style="shape=partialRectangle;connectable=0;fillColor=none;top=0;left=0;bottom=0;right=0;align=left;spacingLeft=6;overflow=hidden;whiteSpace=wrap;html=1;" vertex="1" parent="MPtfcEujKL0awTU9ri0k-149">
          <mxGeometry x="30" width="137.75" height="30" as="geometry">
            <mxRectangle width="137.75" height="30" as="alternateBounds" />
          </mxGeometry>
        </mxCell>
        <mxCell id="MPtfcEujKL0awTU9ri0k-158" value="" style="shape=tableRow;horizontal=0;startSize=0;swimlaneHead=0;swimlaneBody=0;fillColor=none;collapsible=0;dropTarget=0;points=[[0,0.5],[1,0.5]];portConstraint=eastwest;top=0;left=0;right=0;bottom=0;" vertex="1" parent="MPtfcEujKL0awTU9ri0k-14">
          <mxGeometry y="180" width="167.75" height="30" as="geometry" />
        </mxCell>
        <mxCell id="MPtfcEujKL0awTU9ri0k-159" value="" style="shape=partialRectangle;connectable=0;fillColor=none;top=0;left=0;bottom=0;right=0;editable=1;overflow=hidden;whiteSpace=wrap;html=1;" vertex="1" parent="MPtfcEujKL0awTU9ri0k-158">
          <mxGeometry width="30" height="30" as="geometry">
            <mxRectangle width="30" height="30" as="alternateBounds" />
          </mxGeometry>
        </mxCell>
        <mxCell id="MPtfcEujKL0awTU9ri0k-160" value="Count:int" style="shape=partialRectangle;connectable=0;fillColor=none;top=0;left=0;bottom=0;right=0;align=left;spacingLeft=6;overflow=hidden;whiteSpace=wrap;html=1;" vertex="1" parent="MPtfcEujKL0awTU9ri0k-158">
          <mxGeometry x="30" width="137.75" height="30" as="geometry">
            <mxRectangle width="137.75" height="30" as="alternateBounds" />
          </mxGeometry>
        </mxCell>
        <mxCell id="MPtfcEujKL0awTU9ri0k-27" value="Prescription&amp;nbsp;&lt;div&gt;(Рецепт)&lt;/div&gt;" style="shape=table;startSize=30;container=1;collapsible=1;childLayout=tableLayout;fixedRows=1;rowLines=0;fontStyle=1;align=center;resizeLast=1;html=1;" vertex="1" parent="1">
          <mxGeometry x="56" y="245" width="159.75" height="198" as="geometry" />
        </mxCell>
        <mxCell id="MPtfcEujKL0awTU9ri0k-28" value="" style="shape=tableRow;horizontal=0;startSize=0;swimlaneHead=0;swimlaneBody=0;fillColor=none;collapsible=0;dropTarget=0;points=[[0,0.5],[1,0.5]];portConstraint=eastwest;top=0;left=0;right=0;bottom=1;" vertex="1" parent="MPtfcEujKL0awTU9ri0k-27">
          <mxGeometry y="30" width="159.75" height="30" as="geometry" />
        </mxCell>
        <mxCell id="MPtfcEujKL0awTU9ri0k-29" value="PK" style="shape=partialRectangle;connectable=0;fillColor=none;top=0;left=0;bottom=0;right=0;fontStyle=1;overflow=hidden;whiteSpace=wrap;html=1;" vertex="1" parent="MPtfcEujKL0awTU9ri0k-28">
          <mxGeometry width="30" height="30" as="geometry">
            <mxRectangle width="30" height="30" as="alternateBounds" />
          </mxGeometry>
        </mxCell>
        <mxCell id="MPtfcEujKL0awTU9ri0k-30" value="&lt;span style=&quot;text-align: center; text-wrap-mode: nowrap;&quot;&gt;prescription_&lt;/span&gt;ID&lt;span style=&quot;font-weight: 400;&quot;&gt;:int&lt;/span&gt;" style="shape=partialRectangle;connectable=0;fillColor=none;top=0;left=0;bottom=0;right=0;align=left;spacingLeft=6;fontStyle=5;overflow=hidden;whiteSpace=wrap;html=1;" vertex="1" parent="MPtfcEujKL0awTU9ri0k-28">
          <mxGeometry x="30" width="129.75" height="30" as="geometry">
            <mxRectangle width="129.75" height="30" as="alternateBounds" />
          </mxGeometry>
        </mxCell>
        <mxCell id="MPtfcEujKL0awTU9ri0k-31" value="" style="shape=tableRow;horizontal=0;startSize=0;swimlaneHead=0;swimlaneBody=0;fillColor=none;collapsible=0;dropTarget=0;points=[[0,0.5],[1,0.5]];portConstraint=eastwest;top=0;left=0;right=0;bottom=0;" vertex="1" parent="MPtfcEujKL0awTU9ri0k-27">
          <mxGeometry y="60" width="159.75" height="31" as="geometry" />
        </mxCell>
        <mxCell id="MPtfcEujKL0awTU9ri0k-32" value="FK" style="shape=partialRectangle;connectable=0;fillColor=none;top=0;left=0;bottom=0;right=0;editable=1;overflow=hidden;whiteSpace=wrap;html=1;" vertex="1" parent="MPtfcEujKL0awTU9ri0k-31">
          <mxGeometry width="30" height="31" as="geometry">
            <mxRectangle width="30" height="31" as="alternateBounds" />
          </mxGeometry>
        </mxCell>
        <mxCell id="MPtfcEujKL0awTU9ri0k-33" value="medicine_id:int" style="shape=partialRectangle;connectable=0;fillColor=none;top=0;left=0;bottom=0;right=0;align=left;spacingLeft=6;overflow=hidden;whiteSpace=wrap;html=1;" vertex="1" parent="MPtfcEujKL0awTU9ri0k-31">
          <mxGeometry x="30" width="129.75" height="31" as="geometry">
            <mxRectangle width="129.75" height="31" as="alternateBounds" />
          </mxGeometry>
        </mxCell>
        <mxCell id="MPtfcEujKL0awTU9ri0k-34" value="" style="shape=tableRow;horizontal=0;startSize=0;swimlaneHead=0;swimlaneBody=0;fillColor=none;collapsible=0;dropTarget=0;points=[[0,0.5],[1,0.5]];portConstraint=eastwest;top=0;left=0;right=0;bottom=0;" vertex="1" parent="MPtfcEujKL0awTU9ri0k-27">
          <mxGeometry y="91" width="159.75" height="26" as="geometry" />
        </mxCell>
        <mxCell id="MPtfcEujKL0awTU9ri0k-35" value="FK" style="shape=partialRectangle;connectable=0;fillColor=none;top=0;left=0;bottom=0;right=0;editable=1;overflow=hidden;whiteSpace=wrap;html=1;" vertex="1" parent="MPtfcEujKL0awTU9ri0k-34">
          <mxGeometry width="30" height="26" as="geometry">
            <mxRectangle width="30" height="26" as="alternateBounds" />
          </mxGeometry>
        </mxCell>
        <mxCell id="MPtfcEujKL0awTU9ri0k-36" value="doctor_id:int" style="shape=partialRectangle;connectable=0;fillColor=none;top=0;left=0;bottom=0;right=0;align=left;spacingLeft=6;overflow=hidden;whiteSpace=wrap;html=1;" vertex="1" parent="MPtfcEujKL0awTU9ri0k-34">
          <mxGeometry x="30" width="129.75" height="26" as="geometry">
            <mxRectangle width="129.75" height="26" as="alternateBounds" />
          </mxGeometry>
        </mxCell>
        <mxCell id="MPtfcEujKL0awTU9ri0k-37" value="" style="shape=tableRow;horizontal=0;startSize=0;swimlaneHead=0;swimlaneBody=0;fillColor=none;collapsible=0;dropTarget=0;points=[[0,0.5],[1,0.5]];portConstraint=eastwest;top=0;left=0;right=0;bottom=0;" vertex="1" parent="MPtfcEujKL0awTU9ri0k-27">
          <mxGeometry y="117" width="159.75" height="27" as="geometry" />
        </mxCell>
        <mxCell id="MPtfcEujKL0awTU9ri0k-38" value="FK" style="shape=partialRectangle;connectable=0;fillColor=none;top=0;left=0;bottom=0;right=0;editable=1;overflow=hidden;whiteSpace=wrap;html=1;" vertex="1" parent="MPtfcEujKL0awTU9ri0k-37">
          <mxGeometry width="30" height="27" as="geometry">
            <mxRectangle width="30" height="27" as="alternateBounds" />
          </mxGeometry>
        </mxCell>
        <mxCell id="MPtfcEujKL0awTU9ri0k-39" value="client_id:int" style="shape=partialRectangle;connectable=0;fillColor=none;top=0;left=0;bottom=0;right=0;align=left;spacingLeft=6;overflow=hidden;whiteSpace=wrap;html=1;" vertex="1" parent="MPtfcEujKL0awTU9ri0k-37">
          <mxGeometry x="30" width="129.75" height="27" as="geometry">
            <mxRectangle width="129.75" height="27" as="alternateBounds" />
          </mxGeometry>
        </mxCell>
        <mxCell id="MPtfcEujKL0awTU9ri0k-142" value="" style="shape=tableRow;horizontal=0;startSize=0;swimlaneHead=0;swimlaneBody=0;fillColor=none;collapsible=0;dropTarget=0;points=[[0,0.5],[1,0.5]];portConstraint=eastwest;top=0;left=0;right=0;bottom=0;" vertex="1" parent="MPtfcEujKL0awTU9ri0k-27">
          <mxGeometry y="144" width="159.75" height="27" as="geometry" />
        </mxCell>
        <mxCell id="MPtfcEujKL0awTU9ri0k-143" value="FK" style="shape=partialRectangle;connectable=0;fillColor=none;top=0;left=0;bottom=0;right=0;editable=1;overflow=hidden;whiteSpace=wrap;html=1;" vertex="1" parent="MPtfcEujKL0awTU9ri0k-142">
          <mxGeometry width="30" height="27" as="geometry">
            <mxRectangle width="30" height="27" as="alternateBounds" />
          </mxGeometry>
        </mxCell>
        <mxCell id="MPtfcEujKL0awTU9ri0k-144" value="diagnosis_id:int" style="shape=partialRectangle;connectable=0;fillColor=none;top=0;left=0;bottom=0;right=0;align=left;spacingLeft=6;overflow=hidden;whiteSpace=wrap;html=1;" vertex="1" parent="MPtfcEujKL0awTU9ri0k-142">
          <mxGeometry x="30" width="129.75" height="27" as="geometry">
            <mxRectangle width="129.75" height="27" as="alternateBounds" />
          </mxGeometry>
        </mxCell>
        <mxCell id="MPtfcEujKL0awTU9ri0k-152" value="" style="shape=tableRow;horizontal=0;startSize=0;swimlaneHead=0;swimlaneBody=0;fillColor=none;collapsible=0;dropTarget=0;points=[[0,0.5],[1,0.5]];portConstraint=eastwest;top=0;left=0;right=0;bottom=0;" vertex="1" parent="MPtfcEujKL0awTU9ri0k-27">
          <mxGeometry y="171" width="159.75" height="27" as="geometry" />
        </mxCell>
        <mxCell id="MPtfcEujKL0awTU9ri0k-153" value="" style="shape=partialRectangle;connectable=0;fillColor=none;top=0;left=0;bottom=0;right=0;editable=1;overflow=hidden;whiteSpace=wrap;html=1;" vertex="1" parent="MPtfcEujKL0awTU9ri0k-152">
          <mxGeometry width="30" height="27" as="geometry">
            <mxRectangle width="30" height="27" as="alternateBounds" />
          </mxGeometry>
        </mxCell>
        <mxCell id="MPtfcEujKL0awTU9ri0k-154" value="Optional:char" style="shape=partialRectangle;connectable=0;fillColor=none;top=0;left=0;bottom=0;right=0;align=left;spacingLeft=6;overflow=hidden;whiteSpace=wrap;html=1;" vertex="1" parent="MPtfcEujKL0awTU9ri0k-152">
          <mxGeometry x="30" width="129.75" height="27" as="geometry">
            <mxRectangle width="129.75" height="27" as="alternateBounds" />
          </mxGeometry>
        </mxCell>
        <mxCell id="MPtfcEujKL0awTU9ri0k-40" value="Doctor&amp;nbsp;&lt;div&gt;(Врач)&lt;/div&gt;" style="shape=table;startSize=30;container=1;collapsible=1;childLayout=tableLayout;fixedRows=1;rowLines=0;fontStyle=1;align=center;resizeLast=1;html=1;" vertex="1" parent="1">
          <mxGeometry x="349" y="393" width="154.75" height="149" as="geometry" />
        </mxCell>
        <mxCell id="MPtfcEujKL0awTU9ri0k-41" value="" style="shape=tableRow;horizontal=0;startSize=0;swimlaneHead=0;swimlaneBody=0;fillColor=none;collapsible=0;dropTarget=0;points=[[0,0.5],[1,0.5]];portConstraint=eastwest;top=0;left=0;right=0;bottom=1;" vertex="1" parent="MPtfcEujKL0awTU9ri0k-40">
          <mxGeometry y="30" width="154.75" height="30" as="geometry" />
        </mxCell>
        <mxCell id="MPtfcEujKL0awTU9ri0k-42" value="PK" style="shape=partialRectangle;connectable=0;fillColor=none;top=0;left=0;bottom=0;right=0;fontStyle=1;overflow=hidden;whiteSpace=wrap;html=1;" vertex="1" parent="MPtfcEujKL0awTU9ri0k-41">
          <mxGeometry width="30" height="30" as="geometry">
            <mxRectangle width="30" height="30" as="alternateBounds" />
          </mxGeometry>
        </mxCell>
        <mxCell id="MPtfcEujKL0awTU9ri0k-43" value="doctor_ID" style="shape=partialRectangle;connectable=0;fillColor=none;top=0;left=0;bottom=0;right=0;align=left;spacingLeft=6;fontStyle=5;overflow=hidden;whiteSpace=wrap;html=1;" vertex="1" parent="MPtfcEujKL0awTU9ri0k-41">
          <mxGeometry x="30" width="124.75" height="30" as="geometry">
            <mxRectangle width="124.75" height="30" as="alternateBounds" />
          </mxGeometry>
        </mxCell>
        <mxCell id="MPtfcEujKL0awTU9ri0k-47" value="" style="shape=tableRow;horizontal=0;startSize=0;swimlaneHead=0;swimlaneBody=0;fillColor=none;collapsible=0;dropTarget=0;points=[[0,0.5],[1,0.5]];portConstraint=eastwest;top=0;left=0;right=0;bottom=0;" vertex="1" parent="MPtfcEujKL0awTU9ri0k-40">
          <mxGeometry y="60" width="154.75" height="29" as="geometry" />
        </mxCell>
        <mxCell id="MPtfcEujKL0awTU9ri0k-48" value="FK" style="shape=partialRectangle;connectable=0;fillColor=none;top=0;left=0;bottom=0;right=0;editable=1;overflow=hidden;whiteSpace=wrap;html=1;" vertex="1" parent="MPtfcEujKL0awTU9ri0k-47">
          <mxGeometry width="30" height="29" as="geometry">
            <mxRectangle width="30" height="29" as="alternateBounds" />
          </mxGeometry>
        </mxCell>
        <mxCell id="MPtfcEujKL0awTU9ri0k-49" value="Post_Id:int" style="shape=partialRectangle;connectable=0;fillColor=none;top=0;left=0;bottom=0;right=0;align=left;spacingLeft=6;overflow=hidden;whiteSpace=wrap;html=1;" vertex="1" parent="MPtfcEujKL0awTU9ri0k-47">
          <mxGeometry x="30" width="124.75" height="29" as="geometry">
            <mxRectangle width="124.75" height="29" as="alternateBounds" />
          </mxGeometry>
        </mxCell>
        <mxCell id="MPtfcEujKL0awTU9ri0k-50" value="" style="shape=tableRow;horizontal=0;startSize=0;swimlaneHead=0;swimlaneBody=0;fillColor=none;collapsible=0;dropTarget=0;points=[[0,0.5],[1,0.5]];portConstraint=eastwest;top=0;left=0;right=0;bottom=0;" vertex="1" parent="MPtfcEujKL0awTU9ri0k-40">
          <mxGeometry y="89" width="154.75" height="30" as="geometry" />
        </mxCell>
        <mxCell id="MPtfcEujKL0awTU9ri0k-51" value="FK" style="shape=partialRectangle;connectable=0;fillColor=none;top=0;left=0;bottom=0;right=0;editable=1;overflow=hidden;whiteSpace=wrap;html=1;" vertex="1" parent="MPtfcEujKL0awTU9ri0k-50">
          <mxGeometry width="30" height="30" as="geometry">
            <mxRectangle width="30" height="30" as="alternateBounds" />
          </mxGeometry>
        </mxCell>
        <mxCell id="MPtfcEujKL0awTU9ri0k-52" value="&lt;span style=&quot;white-space-collapse: preserve;&quot;&gt;Specialization_id:int&lt;/span&gt;" style="shape=partialRectangle;connectable=0;fillColor=none;top=0;left=0;bottom=0;right=0;align=left;spacingLeft=6;overflow=hidden;whiteSpace=wrap;html=1;" vertex="1" parent="MPtfcEujKL0awTU9ri0k-50">
          <mxGeometry x="30" width="124.75" height="30" as="geometry">
            <mxRectangle width="124.75" height="30" as="alternateBounds" />
          </mxGeometry>
        </mxCell>
        <mxCell id="MPtfcEujKL0awTU9ri0k-44" value="" style="shape=tableRow;horizontal=0;startSize=0;swimlaneHead=0;swimlaneBody=0;fillColor=none;collapsible=0;dropTarget=0;points=[[0,0.5],[1,0.5]];portConstraint=eastwest;top=0;left=0;right=0;bottom=0;" vertex="1" parent="MPtfcEujKL0awTU9ri0k-40">
          <mxGeometry y="119" width="154.75" height="30" as="geometry" />
        </mxCell>
        <mxCell id="MPtfcEujKL0awTU9ri0k-45" value="" style="shape=partialRectangle;connectable=0;fillColor=none;top=0;left=0;bottom=0;right=0;editable=1;overflow=hidden;whiteSpace=wrap;html=1;" vertex="1" parent="MPtfcEujKL0awTU9ri0k-44">
          <mxGeometry width="30" height="30" as="geometry">
            <mxRectangle width="30" height="30" as="alternateBounds" />
          </mxGeometry>
        </mxCell>
        <mxCell id="MPtfcEujKL0awTU9ri0k-46" value="FIO:char" style="shape=partialRectangle;connectable=0;fillColor=none;top=0;left=0;bottom=0;right=0;align=left;spacingLeft=6;overflow=hidden;whiteSpace=wrap;html=1;" vertex="1" parent="MPtfcEujKL0awTU9ri0k-44">
          <mxGeometry x="30" width="124.75" height="30" as="geometry">
            <mxRectangle width="124.75" height="30" as="alternateBounds" />
          </mxGeometry>
        </mxCell>
        <mxCell id="MPtfcEujKL0awTU9ri0k-53" value="&lt;font style=&quot;font-size: 12px;&quot;&gt;&lt;span style=&quot;font-family: &amp;quot;YS Text&amp;quot;, -apple-system, BlinkMacSystemFont, Arial, Helvetica, &amp;quot;Arial Unicode MS&amp;quot;, sans-serif; font-weight: 400; text-align: start; white-space: pre-wrap;&quot;&gt;Diagnosis (&lt;/span&gt;Диагноз)&lt;/font&gt;" style="shape=table;startSize=47;container=1;collapsible=1;childLayout=tableLayout;fixedRows=1;rowLines=0;fontStyle=1;align=center;resizeLast=1;html=1;" vertex="1" parent="1">
          <mxGeometry x="349" y="691" width="168.75" height="108" as="geometry" />
        </mxCell>
        <mxCell id="MPtfcEujKL0awTU9ri0k-54" value="" style="shape=tableRow;horizontal=0;startSize=0;swimlaneHead=0;swimlaneBody=0;fillColor=none;collapsible=0;dropTarget=0;points=[[0,0.5],[1,0.5]];portConstraint=eastwest;top=0;left=0;right=0;bottom=1;" vertex="1" parent="MPtfcEujKL0awTU9ri0k-53">
          <mxGeometry y="47" width="168.75" height="30" as="geometry" />
        </mxCell>
        <mxCell id="MPtfcEujKL0awTU9ri0k-55" value="PK" style="shape=partialRectangle;connectable=0;fillColor=none;top=0;left=0;bottom=0;right=0;fontStyle=1;overflow=hidden;whiteSpace=wrap;html=1;" vertex="1" parent="MPtfcEujKL0awTU9ri0k-54">
          <mxGeometry width="30" height="30" as="geometry">
            <mxRectangle width="30" height="30" as="alternateBounds" />
          </mxGeometry>
        </mxCell>
        <mxCell id="MPtfcEujKL0awTU9ri0k-56" value="diagnosis_ID:int" style="shape=partialRectangle;connectable=0;fillColor=none;top=0;left=0;bottom=0;right=0;align=left;spacingLeft=6;fontStyle=5;overflow=hidden;whiteSpace=wrap;html=1;" vertex="1" parent="MPtfcEujKL0awTU9ri0k-54">
          <mxGeometry x="30" width="138.75" height="30" as="geometry">
            <mxRectangle width="138.75" height="30" as="alternateBounds" />
          </mxGeometry>
        </mxCell>
        <mxCell id="MPtfcEujKL0awTU9ri0k-57" value="" style="shape=tableRow;horizontal=0;startSize=0;swimlaneHead=0;swimlaneBody=0;fillColor=none;collapsible=0;dropTarget=0;points=[[0,0.5],[1,0.5]];portConstraint=eastwest;top=0;left=0;right=0;bottom=0;" vertex="1" parent="MPtfcEujKL0awTU9ri0k-53">
          <mxGeometry y="77" width="168.75" height="30" as="geometry" />
        </mxCell>
        <mxCell id="MPtfcEujKL0awTU9ri0k-58" value="" style="shape=partialRectangle;connectable=0;fillColor=none;top=0;left=0;bottom=0;right=0;editable=1;overflow=hidden;whiteSpace=wrap;html=1;" vertex="1" parent="MPtfcEujKL0awTU9ri0k-57">
          <mxGeometry width="30" height="30" as="geometry">
            <mxRectangle width="30" height="30" as="alternateBounds" />
          </mxGeometry>
        </mxCell>
        <mxCell id="MPtfcEujKL0awTU9ri0k-59" value="Diagnosis_name:char" style="shape=partialRectangle;connectable=0;fillColor=none;top=0;left=0;bottom=0;right=0;align=left;spacingLeft=6;overflow=hidden;whiteSpace=wrap;html=1;" vertex="1" parent="MPtfcEujKL0awTU9ri0k-57">
          <mxGeometry x="30" width="138.75" height="30" as="geometry">
            <mxRectangle width="138.75" height="30" as="alternateBounds" />
          </mxGeometry>
        </mxCell>
        <mxCell id="MPtfcEujKL0awTU9ri0k-66" value="" style="edgeStyle=orthogonalEdgeStyle;fontSize=12;html=1;endArrow=ERoneToMany;startArrow=ERmandOne;rounded=0;entryX=1;entryY=0.5;entryDx=0;entryDy=0;exitX=0;exitY=0.5;exitDx=0;exitDy=0;" edge="1" parent="1" source="MPtfcEujKL0awTU9ri0k-2" target="MPtfcEujKL0awTU9ri0k-37">
          <mxGeometry width="100" height="100" relative="1" as="geometry">
            <mxPoint x="516" y="489" as="sourcePoint" />
            <mxPoint x="201" y="399" as="targetPoint" />
          </mxGeometry>
        </mxCell>
        <mxCell id="MPtfcEujKL0awTU9ri0k-148" value="" style="edgeStyle=elbowEdgeStyle;fontSize=12;html=1;endArrow=ERoneToMany;startArrow=ERmandOne;rounded=0;entryX=1;entryY=0.5;entryDx=0;entryDy=0;exitX=0;exitY=0.5;exitDx=0;exitDy=0;" edge="1" parent="1" source="MPtfcEujKL0awTU9ri0k-15" target="MPtfcEujKL0awTU9ri0k-31">
          <mxGeometry width="100" height="100" relative="1" as="geometry">
            <mxPoint x="412" y="493" as="sourcePoint" />
            <mxPoint x="97" y="403" as="targetPoint" />
          </mxGeometry>
        </mxCell>
        <mxCell id="MPtfcEujKL0awTU9ri0k-155" value="" style="edgeStyle=elbowEdgeStyle;fontSize=12;html=1;endArrow=ERoneToMany;startArrow=ERmandOne;rounded=0;exitX=0;exitY=0.5;exitDx=0;exitDy=0;entryX=1;entryY=0.5;entryDx=0;entryDy=0;" edge="1" parent="1" source="MPtfcEujKL0awTU9ri0k-54" target="MPtfcEujKL0awTU9ri0k-142">
          <mxGeometry width="100" height="100" relative="1" as="geometry">
            <mxPoint x="364.75" y="669.5" as="sourcePoint" />
            <mxPoint x="230" y="400" as="targetPoint" />
            <Array as="points">
              <mxPoint x="262" y="568" />
            </Array>
          </mxGeometry>
        </mxCell>
        <mxCell id="MPtfcEujKL0awTU9ri0k-157" value="" style="edgeStyle=elbowEdgeStyle;fontSize=12;html=1;endArrow=ERoneToMany;startArrow=ERmandOne;rounded=0;entryX=1;entryY=0.5;entryDx=0;entryDy=0;exitX=0;exitY=0.5;exitDx=0;exitDy=0;" edge="1" parent="1" source="MPtfcEujKL0awTU9ri0k-41" target="MPtfcEujKL0awTU9ri0k-34">
          <mxGeometry width="100" height="100" relative="1" as="geometry">
            <mxPoint x="412" y="498" as="sourcePoint" />
            <mxPoint x="512" y="398" as="targetPoint" />
            <Array as="points">
              <mxPoint x="310" y="365" />
            </Array>
          </mxGeometry>
        </mxCell>
        <mxCell id="MPtfcEujKL0awTU9ri0k-161" value="Post&amp;nbsp;&lt;div&gt;(Должность)&lt;/div&gt;" style="shape=table;startSize=30;container=1;collapsible=1;childLayout=tableLayout;fixedRows=1;rowLines=0;fontStyle=1;align=center;resizeLast=1;html=1;" vertex="1" parent="1">
          <mxGeometry x="593" y="370" width="193.75" height="90" as="geometry" />
        </mxCell>
        <mxCell id="MPtfcEujKL0awTU9ri0k-162" value="" style="shape=tableRow;horizontal=0;startSize=0;swimlaneHead=0;swimlaneBody=0;fillColor=none;collapsible=0;dropTarget=0;points=[[0,0.5],[1,0.5]];portConstraint=eastwest;top=0;left=0;right=0;bottom=1;" vertex="1" parent="MPtfcEujKL0awTU9ri0k-161">
          <mxGeometry y="30" width="193.75" height="30" as="geometry" />
        </mxCell>
        <mxCell id="MPtfcEujKL0awTU9ri0k-163" value="PK" style="shape=partialRectangle;connectable=0;fillColor=none;top=0;left=0;bottom=0;right=0;fontStyle=1;overflow=hidden;whiteSpace=wrap;html=1;" vertex="1" parent="MPtfcEujKL0awTU9ri0k-162">
          <mxGeometry width="30" height="30" as="geometry">
            <mxRectangle width="30" height="30" as="alternateBounds" />
          </mxGeometry>
        </mxCell>
        <mxCell id="MPtfcEujKL0awTU9ri0k-164" value="post_ID:int" style="shape=partialRectangle;connectable=0;fillColor=none;top=0;left=0;bottom=0;right=0;align=left;spacingLeft=6;fontStyle=5;overflow=hidden;whiteSpace=wrap;html=1;" vertex="1" parent="MPtfcEujKL0awTU9ri0k-162">
          <mxGeometry x="30" width="163.75" height="30" as="geometry">
            <mxRectangle width="163.75" height="30" as="alternateBounds" />
          </mxGeometry>
        </mxCell>
        <mxCell id="MPtfcEujKL0awTU9ri0k-165" value="" style="shape=tableRow;horizontal=0;startSize=0;swimlaneHead=0;swimlaneBody=0;fillColor=none;collapsible=0;dropTarget=0;points=[[0,0.5],[1,0.5]];portConstraint=eastwest;top=0;left=0;right=0;bottom=0;" vertex="1" parent="MPtfcEujKL0awTU9ri0k-161">
          <mxGeometry y="60" width="193.75" height="30" as="geometry" />
        </mxCell>
        <mxCell id="MPtfcEujKL0awTU9ri0k-166" value="" style="shape=partialRectangle;connectable=0;fillColor=none;top=0;left=0;bottom=0;right=0;editable=1;overflow=hidden;whiteSpace=wrap;html=1;" vertex="1" parent="MPtfcEujKL0awTU9ri0k-165">
          <mxGeometry width="30" height="30" as="geometry">
            <mxRectangle width="30" height="30" as="alternateBounds" />
          </mxGeometry>
        </mxCell>
        <mxCell id="MPtfcEujKL0awTU9ri0k-167" value="post_name:char" style="shape=partialRectangle;connectable=0;fillColor=none;top=0;left=0;bottom=0;right=0;align=left;spacingLeft=6;overflow=hidden;whiteSpace=wrap;html=1;" vertex="1" parent="MPtfcEujKL0awTU9ri0k-165">
          <mxGeometry x="30" width="163.75" height="30" as="geometry">
            <mxRectangle width="163.75" height="30" as="alternateBounds" />
          </mxGeometry>
        </mxCell>
        <mxCell id="MPtfcEujKL0awTU9ri0k-171" value="" style="edgeStyle=elbowEdgeStyle;fontSize=12;html=1;endArrow=ERoneToMany;startArrow=ERmandOne;rounded=0;exitX=0;exitY=0.5;exitDx=0;exitDy=0;entryX=1;entryY=0.5;entryDx=0;entryDy=0;" edge="1" parent="1" source="MPtfcEujKL0awTU9ri0k-162" target="MPtfcEujKL0awTU9ri0k-47">
          <mxGeometry width="100" height="100" relative="1" as="geometry">
            <mxPoint x="516" y="473" as="sourcePoint" />
            <mxPoint x="616" y="373" as="targetPoint" />
          </mxGeometry>
        </mxCell>
        <mxCell id="MPtfcEujKL0awTU9ri0k-172" value="&lt;span style=&quot;font-weight: 400; text-align: left; white-space: pre-wrap;&quot;&gt;Specialization&lt;/span&gt;&amp;nbsp;&lt;div&gt;(Специализация)&lt;/div&gt;" style="shape=table;startSize=30;container=1;collapsible=1;childLayout=tableLayout;fixedRows=1;rowLines=0;fontStyle=1;align=center;resizeLast=1;html=1;" vertex="1" parent="1">
          <mxGeometry x="593" y="507" width="193.75" height="90" as="geometry" />
        </mxCell>
        <mxCell id="MPtfcEujKL0awTU9ri0k-173" value="" style="shape=tableRow;horizontal=0;startSize=0;swimlaneHead=0;swimlaneBody=0;fillColor=none;collapsible=0;dropTarget=0;points=[[0,0.5],[1,0.5]];portConstraint=eastwest;top=0;left=0;right=0;bottom=1;" vertex="1" parent="MPtfcEujKL0awTU9ri0k-172">
          <mxGeometry y="30" width="193.75" height="30" as="geometry" />
        </mxCell>
        <mxCell id="MPtfcEujKL0awTU9ri0k-174" value="PK" style="shape=partialRectangle;connectable=0;fillColor=none;top=0;left=0;bottom=0;right=0;fontStyle=1;overflow=hidden;whiteSpace=wrap;html=1;" vertex="1" parent="MPtfcEujKL0awTU9ri0k-173">
          <mxGeometry width="30" height="30" as="geometry">
            <mxRectangle width="30" height="30" as="alternateBounds" />
          </mxGeometry>
        </mxCell>
        <mxCell id="MPtfcEujKL0awTU9ri0k-175" value="&lt;div style=&quot;text-align: center;&quot;&gt;&lt;span style=&quot;background-color: transparent; color: light-dark(rgb(0, 0, 0), rgb(255, 255, 255)); white-space-collapse: preserve; font-weight: 400;&quot;&gt;Specialization&lt;span style=&quot;text-wrap-mode: nowrap;&quot;&gt;_&lt;/span&gt;&lt;/span&gt;&lt;span style=&quot;background-color: transparent; color: light-dark(rgb(0, 0, 0), rgb(255, 255, 255));&quot;&gt;ID:int&lt;/span&gt;&lt;/div&gt;" style="shape=partialRectangle;connectable=0;fillColor=none;top=0;left=0;bottom=0;right=0;align=left;spacingLeft=6;fontStyle=5;overflow=hidden;whiteSpace=wrap;html=1;" vertex="1" parent="MPtfcEujKL0awTU9ri0k-173">
          <mxGeometry x="30" width="163.75" height="30" as="geometry">
            <mxRectangle width="163.75" height="30" as="alternateBounds" />
          </mxGeometry>
        </mxCell>
        <mxCell id="MPtfcEujKL0awTU9ri0k-176" value="" style="shape=tableRow;horizontal=0;startSize=0;swimlaneHead=0;swimlaneBody=0;fillColor=none;collapsible=0;dropTarget=0;points=[[0,0.5],[1,0.5]];portConstraint=eastwest;top=0;left=0;right=0;bottom=0;" vertex="1" parent="MPtfcEujKL0awTU9ri0k-172">
          <mxGeometry y="60" width="193.75" height="30" as="geometry" />
        </mxCell>
        <mxCell id="MPtfcEujKL0awTU9ri0k-177" value="" style="shape=partialRectangle;connectable=0;fillColor=none;top=0;left=0;bottom=0;right=0;editable=1;overflow=hidden;whiteSpace=wrap;html=1;" vertex="1" parent="MPtfcEujKL0awTU9ri0k-176">
          <mxGeometry width="30" height="30" as="geometry">
            <mxRectangle width="30" height="30" as="alternateBounds" />
          </mxGeometry>
        </mxCell>
        <mxCell id="MPtfcEujKL0awTU9ri0k-178" value="&lt;span style=&quot;white-space-collapse: preserve;&quot;&gt;Specialization&lt;/span&gt;&lt;span style=&quot;font-weight: 700; text-align: center; text-wrap-mode: nowrap;&quot;&gt;&amp;nbsp;&lt;/span&gt;_name:char" style="shape=partialRectangle;connectable=0;fillColor=none;top=0;left=0;bottom=0;right=0;align=left;spacingLeft=6;overflow=hidden;whiteSpace=wrap;html=1;" vertex="1" parent="MPtfcEujKL0awTU9ri0k-176">
          <mxGeometry x="30" width="163.75" height="30" as="geometry">
            <mxRectangle width="163.75" height="30" as="alternateBounds" />
          </mxGeometry>
        </mxCell>
        <mxCell id="MPtfcEujKL0awTU9ri0k-179" value="" style="edgeStyle=elbowEdgeStyle;fontSize=12;html=1;endArrow=ERoneToMany;startArrow=ERmandOne;rounded=0;exitX=0;exitY=0.5;exitDx=0;exitDy=0;entryX=1;entryY=0.5;entryDx=0;entryDy=0;" edge="1" parent="1" source="MPtfcEujKL0awTU9ri0k-173" target="MPtfcEujKL0awTU9ri0k-50">
          <mxGeometry width="100" height="100" relative="1" as="geometry">
            <mxPoint x="516" y="653" as="sourcePoint" />
            <mxPoint x="616" y="553" as="targetPoint" />
          </mxGeometry>
        </mxCell>
        <mxCell id="MPtfcEujKL0awTU9ri0k-205" value="&lt;font face=&quot;Helvetica&quot; style=&quot;background-color: light-dark(#ffffff, var(--ge-dark-color, #121212));&quot;&gt;&lt;span style=&quot;font-weight: 400; text-align: start; white-space: pre-wrap;&quot;&gt;manufacturer&lt;/span&gt;&lt;br&gt;&lt;/font&gt;&lt;div&gt;&lt;font face=&quot;Helvetica&quot; style=&quot;background-color: light-dark(#ffffff, var(--ge-dark-color, #121212));&quot;&gt;(Производитель)&lt;/font&gt;&lt;/div&gt;" style="shape=table;startSize=30;container=1;collapsible=1;childLayout=tableLayout;fixedRows=1;rowLines=0;fontStyle=1;align=center;resizeLast=1;html=1;" vertex="1" parent="1">
          <mxGeometry x="605" y="110" width="193.75" height="90" as="geometry" />
        </mxCell>
        <mxCell id="MPtfcEujKL0awTU9ri0k-206" value="" style="shape=tableRow;horizontal=0;startSize=0;swimlaneHead=0;swimlaneBody=0;fillColor=none;collapsible=0;dropTarget=0;points=[[0,0.5],[1,0.5]];portConstraint=eastwest;top=0;left=0;right=0;bottom=1;" vertex="1" parent="MPtfcEujKL0awTU9ri0k-205">
          <mxGeometry y="30" width="193.75" height="30" as="geometry" />
        </mxCell>
        <mxCell id="MPtfcEujKL0awTU9ri0k-207" value="PK" style="shape=partialRectangle;connectable=0;fillColor=none;top=0;left=0;bottom=0;right=0;fontStyle=1;overflow=hidden;whiteSpace=wrap;html=1;" vertex="1" parent="MPtfcEujKL0awTU9ri0k-206">
          <mxGeometry width="30" height="30" as="geometry">
            <mxRectangle width="30" height="30" as="alternateBounds" />
          </mxGeometry>
        </mxCell>
        <mxCell id="MPtfcEujKL0awTU9ri0k-208" value="&lt;span style=&quot;font-weight: 400; white-space-collapse: preserve; background-color: rgb(255, 255, 255);&quot;&gt;manufacturer&lt;/span&gt;_ID:int" style="shape=partialRectangle;connectable=0;fillColor=none;top=0;left=0;bottom=0;right=0;align=left;spacingLeft=6;fontStyle=5;overflow=hidden;whiteSpace=wrap;html=1;" vertex="1" parent="MPtfcEujKL0awTU9ri0k-206">
          <mxGeometry x="30" width="163.75" height="30" as="geometry">
            <mxRectangle width="163.75" height="30" as="alternateBounds" />
          </mxGeometry>
        </mxCell>
        <mxCell id="MPtfcEujKL0awTU9ri0k-209" value="" style="shape=tableRow;horizontal=0;startSize=0;swimlaneHead=0;swimlaneBody=0;fillColor=none;collapsible=0;dropTarget=0;points=[[0,0.5],[1,0.5]];portConstraint=eastwest;top=0;left=0;right=0;bottom=0;" vertex="1" parent="MPtfcEujKL0awTU9ri0k-205">
          <mxGeometry y="60" width="193.75" height="30" as="geometry" />
        </mxCell>
        <mxCell id="MPtfcEujKL0awTU9ri0k-210" value="" style="shape=partialRectangle;connectable=0;fillColor=none;top=0;left=0;bottom=0;right=0;editable=1;overflow=hidden;whiteSpace=wrap;html=1;" vertex="1" parent="MPtfcEujKL0awTU9ri0k-209">
          <mxGeometry width="30" height="30" as="geometry">
            <mxRectangle width="30" height="30" as="alternateBounds" />
          </mxGeometry>
        </mxCell>
        <mxCell id="MPtfcEujKL0awTU9ri0k-211" value="&lt;span style=&quot;white-space-collapse: preserve; background-color: rgb(255, 255, 255);&quot;&gt;manufacturer&lt;/span&gt;_name:char" style="shape=partialRectangle;connectable=0;fillColor=none;top=0;left=0;bottom=0;right=0;align=left;spacingLeft=6;overflow=hidden;whiteSpace=wrap;html=1;" vertex="1" parent="MPtfcEujKL0awTU9ri0k-209">
          <mxGeometry x="30" width="163.75" height="30" as="geometry">
            <mxRectangle width="163.75" height="30" as="alternateBounds" />
          </mxGeometry>
        </mxCell>
        <mxCell id="MPtfcEujKL0awTU9ri0k-212" value="&lt;font style=&quot;background-color: light-dark(#ffffff, var(--ge-dark-color, #121212));&quot;&gt;&lt;span style=&quot;font-family: &amp;quot;YS Text&amp;quot;, -apple-system, BlinkMacSystemFont, Arial, Helvetica, &amp;quot;Arial Unicode MS&amp;quot;, sans-serif; font-weight: 400; text-align: start; white-space: pre-wrap;&quot;&gt;Supplier&lt;/span&gt;&lt;font face=&quot;Helvetica&quot; style=&quot;&quot;&gt;&lt;br&gt;&lt;/font&gt;&lt;/font&gt;&lt;div&gt;&lt;font face=&quot;Helvetica&quot; style=&quot;background-color: light-dark(#ffffff, var(--ge-dark-color, #121212));&quot;&gt;(Поставщик)&lt;/font&gt;&lt;/div&gt;" style="shape=table;startSize=30;container=1;collapsible=1;childLayout=tableLayout;fixedRows=1;rowLines=0;fontStyle=1;align=center;resizeLast=1;html=1;" vertex="1" parent="1">
          <mxGeometry x="600" y="243" width="193.75" height="90" as="geometry" />
        </mxCell>
        <mxCell id="MPtfcEujKL0awTU9ri0k-213" value="" style="shape=tableRow;horizontal=0;startSize=0;swimlaneHead=0;swimlaneBody=0;fillColor=none;collapsible=0;dropTarget=0;points=[[0,0.5],[1,0.5]];portConstraint=eastwest;top=0;left=0;right=0;bottom=1;" vertex="1" parent="MPtfcEujKL0awTU9ri0k-212">
          <mxGeometry y="30" width="193.75" height="30" as="geometry" />
        </mxCell>
        <mxCell id="MPtfcEujKL0awTU9ri0k-214" value="PK" style="shape=partialRectangle;connectable=0;fillColor=none;top=0;left=0;bottom=0;right=0;fontStyle=1;overflow=hidden;whiteSpace=wrap;html=1;" vertex="1" parent="MPtfcEujKL0awTU9ri0k-213">
          <mxGeometry width="30" height="30" as="geometry">
            <mxRectangle width="30" height="30" as="alternateBounds" />
          </mxGeometry>
        </mxCell>
        <mxCell id="MPtfcEujKL0awTU9ri0k-215" value="&lt;span style=&quot;font-family: &amp;quot;YS Text&amp;quot;, -apple-system, BlinkMacSystemFont, Arial, Helvetica, &amp;quot;Arial Unicode MS&amp;quot;, sans-serif; font-weight: 400; white-space-collapse: preserve; background-color: rgb(255, 255, 255);&quot;&gt;supplier&lt;/span&gt;_ID:int" style="shape=partialRectangle;connectable=0;fillColor=none;top=0;left=0;bottom=0;right=0;align=left;spacingLeft=6;fontStyle=5;overflow=hidden;whiteSpace=wrap;html=1;" vertex="1" parent="MPtfcEujKL0awTU9ri0k-213">
          <mxGeometry x="30" width="163.75" height="30" as="geometry">
            <mxRectangle width="163.75" height="30" as="alternateBounds" />
          </mxGeometry>
        </mxCell>
        <mxCell id="MPtfcEujKL0awTU9ri0k-216" value="" style="shape=tableRow;horizontal=0;startSize=0;swimlaneHead=0;swimlaneBody=0;fillColor=none;collapsible=0;dropTarget=0;points=[[0,0.5],[1,0.5]];portConstraint=eastwest;top=0;left=0;right=0;bottom=0;" vertex="1" parent="MPtfcEujKL0awTU9ri0k-212">
          <mxGeometry y="60" width="193.75" height="30" as="geometry" />
        </mxCell>
        <mxCell id="MPtfcEujKL0awTU9ri0k-217" value="" style="shape=partialRectangle;connectable=0;fillColor=none;top=0;left=0;bottom=0;right=0;editable=1;overflow=hidden;whiteSpace=wrap;html=1;" vertex="1" parent="MPtfcEujKL0awTU9ri0k-216">
          <mxGeometry width="30" height="30" as="geometry">
            <mxRectangle width="30" height="30" as="alternateBounds" />
          </mxGeometry>
        </mxCell>
        <mxCell id="MPtfcEujKL0awTU9ri0k-218" value="&lt;span style=&quot;font-family: &amp;quot;YS Text&amp;quot;, -apple-system, BlinkMacSystemFont, Arial, Helvetica, &amp;quot;Arial Unicode MS&amp;quot;, sans-serif; white-space-collapse: preserve; background-color: rgb(255, 255, 255);&quot;&gt;supplier&lt;/span&gt;_name:char" style="shape=partialRectangle;connectable=0;fillColor=none;top=0;left=0;bottom=0;right=0;align=left;spacingLeft=6;overflow=hidden;whiteSpace=wrap;html=1;" vertex="1" parent="MPtfcEujKL0awTU9ri0k-216">
          <mxGeometry x="30" width="163.75" height="30" as="geometry">
            <mxRectangle width="163.75" height="30" as="alternateBounds" />
          </mxGeometry>
        </mxCell>
        <mxCell id="MPtfcEujKL0awTU9ri0k-219" value="" style="edgeStyle=elbowEdgeStyle;fontSize=12;html=1;endArrow=ERoneToMany;startArrow=ERmandOne;rounded=0;exitX=0;exitY=0.5;exitDx=0;exitDy=0;entryX=1;entryY=0.5;entryDx=0;entryDy=0;" edge="1" parent="1" source="MPtfcEujKL0awTU9ri0k-206" target="MPtfcEujKL0awTU9ri0k-18">
          <mxGeometry width="100" height="100" relative="1" as="geometry">
            <mxPoint x="516" y="574" as="sourcePoint" />
            <mxPoint x="616" y="474" as="targetPoint" />
          </mxGeometry>
        </mxCell>
        <mxCell id="MPtfcEujKL0awTU9ri0k-220" value="" style="edgeStyle=elbowEdgeStyle;fontSize=12;html=1;endArrow=ERoneToMany;startArrow=ERmandOne;rounded=0;exitX=0;exitY=0.5;exitDx=0;exitDy=0;entryX=1;entryY=0.5;entryDx=0;entryDy=0;" edge="1" parent="1" source="MPtfcEujKL0awTU9ri0k-213" target="MPtfcEujKL0awTU9ri0k-202">
          <mxGeometry width="100" height="100" relative="1" as="geometry">
            <mxPoint x="516" y="574" as="sourcePoint" />
            <mxPoint x="616" y="474" as="targetPoint" />
          </mxGeometry>
        </mxCell>
      </root>
    </mxGraphModel>
  </diagram>
</mxfile>
